<?xml version="1.0" encoding="UTF-8" standalone="no"?>
<svg
   viewBox="0 0 140 48"
   fill="none"
   version="1.1"
   id="svg3"
   sodipodi:docname="logo.svg"
   width="140"
   height="48"
   inkscape:version="1.4.3 (0d15f75, 2025-12-25)"
   xmlns:inkscape="http://www.inkscape.org/namespaces/inkscape"
   xmlns:sodipodi="http://sodipodi.sourceforge.net/DTD/sodipodi-0.dtd"
   xmlns="http://www.w3.org/2000/svg"
   xmlns:svg="http://www.w3.org/2000/svg">
  <defs
     id="defs3" />
  <sodipodi:namedview
     id="namedview3"
     pagecolor="#ffffff"
     bordercolor="#000000"
     borderopacity="0.25"
     inkscape:showpageshadow="2"
     inkscape:pageopacity="0.0"
     inkscape:pagecheckerboard="0"
     inkscape:deskcolor="#d1d1d1"
     inkscape:zoom="4"
     inkscape:cx="50.75"
     inkscape:cy="8.375"
     inkscape:window-width="2560"
     inkscape:window-height="1346"
     inkscape:window-x="-11"
     inkscape:window-y="-11"
     inkscape:window-maximized="1"
     inkscape:current-layer="svg3" />
  <!-- Tooth icon -->
  <g
     transform="translate(4,2)"
     id="g2">
    <path
       d="M 22,4 C 18.5,4 16,5.5 14,8 12,5.5 9.5,4 6,4 2.5,4 0,7 0,11 c 0,5 2,9 5,17 1.5,4 2.5,8 3,10 0.3,1.5 1,2 2,2 1.2,0 1.8,-1 2,-2.5 l 2,-9.5 2,9.5 c 0.2,1.5 0.8,2.5 2,2.5 1,0 1.7,-0.5 2,-2 0.5,-2 1.5,-6 3,-10 3,-8 5,-12 5,-17 0,-4 -2.5,-7 -6,-7 z"
       fill="#14b8a6"
       id="path1" />
    <path
       d="m 14,12 c 0,0 -2,2 -4,2 -2,0 -4,-2 -4,-4"
       stroke="rgba(255,255,255,0.5)"
       stroke-width="1.2"
       stroke-linecap="round"
       fill="none"
       id="path2" />
    <circle
       cx="8"
       cy="9"
       r="1.2"
       fill="rgba(255,255,255,0.3)"
       id="circle2" />
  </g>
  <!-- Text: Dental Era -->
  <text
     x="40"
     y="22"
     font-family="Outfit, 'Segoe UI', Arial, sans-serif"
     font-size="20px"
     font-weight="700"
     fill="#ffffff"
     letter-spacing="-0.3"
     id="text2"
     style="fill:#ffffff">Dental Era</text>
  <!-- Text: TECH -->
  <text
     x="40"
     y="38"
     font-family="Outfit, 'Segoe UI', Arial, sans-serif"
     font-size="11px"
     font-weight="600"
     fill="#14b8a6"
     letter-spacing="4"
     id="text3">TECH</text>
  <!-- Accent line -->
  <line
     x1="40"
     y1="25"
     x2="80"
     y2="25"
     stroke="#14b8a6"
     stroke-width="1"
     opacity="0.4"
     id="line3" />
</svg>
