<svg xmlns="http://www.w3.org/2000/svg" viewBox="0 0 240 48" fill="none">
  <!-- Tooth icon -->
  <g transform="translate(4, 2)">
    <path d="M22 4C18.5 4 16 5.5 14 8C12 5.5 9.5 4 6 4C2.5 4 0 7 0 11C0 16 2 20 5 28C6.5 32 7.5 36 8 38C8.3 39.5 9 40 10 40C11.2 40 11.8 39 12 37.5L14 28L16 37.5C16.2 39 16.8 40 18 40C19 40 19.7 39.5 20 38C20.5 36 21.5 32 23 28C26 20 28 16 28 11C28 7 25.5 4 22 4Z" fill="#14b8a6"/>
    <path d="M14 12C14 12 12 14 10 14C8 14 6 12 6 10" stroke="rgba(255,255,255,0.5)" stroke-width="1.2" stroke-linecap="round" fill="none"/>
    <circle cx="8" cy="9" r="1.2" fill="rgba(255,255,255,0.3)"/>
  </g>
  <!-- Text: Dental Era -->
  <text x="40" y="22" font-family="'Outfit', 'Segoe UI', Arial, sans-serif" font-size="20" font-weight="700" fill="#ffffff" letter-spacing="-0.3">
    Dental Era
  </text>
  <!-- Text: TECH -->
  <text x="40" y="38" font-family="'Outfit', 'Segoe UI', Arial, sans-serif" font-size="11" font-weight="600" fill="#14b8a6" letter-spacing="4">
    TECH
  </text>
  <!-- Accent line -->
  <line x1="40" y1="25" x2="80" y2="25" stroke="#14b8a6" stroke-width="1" opacity="0.4"/>
</svg>
